<?xml version="1.0" encoding="utf-8"?>
<!-- Svg Vector Icons : http://www.onlinewebfonts.com/icon -->
<!DOCTYPE svg PUBLIC "-//W3C//DTD SVG 1.1//EN" "http://www.w3.org/Graphics/SVG/1.1/DTD/svg11.dtd">
<svg version="1.1" xmlns="http://www.w3.org/2000/svg" xmlns:xlink="http://www.w3.org/1999/xlink" x="0px" y="0px" viewBox="0 0 256 256" enable-background="new 0 0 256 256" xml:space="preserve">
<metadata> Svg Vector Icons : http://www.onlinewebfonts.com/icon </metadata>
<g><g><path fill="#000000" d="M218.3,107.8h-42.2v-5.6V88.8v-7.9V67.5c0-8.9,7.2-16.1,16.1-16.1h4.9c2,0,3.6-1.6,3.6-3.6c0-2-1.6-3.6-3.6-3.6h-4.9c-11.8,0-21.5,8.8-23.1,20.1c-4.2-4.1-10-6.7-16.3-6.7h-4.9c-2,0-3.6,1.6-3.6,3.6c0,2,1.6,3.6,3.6,3.6h4.9c8.9,0,16.1,7.2,16.1,16.1v7.9v13.4v5.6H47.5C43,97.9,32.9,91.4,21.9,91.4h-8.3c-1.1,0-2.1,0.5-2.8,1.3c-0.7,0.8-1,1.9-0.7,3l0.8,3.9c1.7,8.5,7,15.8,14.3,20.2c-7.4,4.6-12.7,12.1-14.5,20.9l-0.6,2.9c-0.2,1.1,0,2.2,0.7,3c0.7,0.8,1.7,1.3,2.8,1.3h8.2c10.8,0,20.5-6.1,25.3-15.6l30.6,10.2c17.7,5.9,34.2,15.9,47.5,29l5.1,5.4l-24.2,20.8c-0.7,0.7-1.2,1.6-1.3,2.5c0,1,0.3,2,1,2.7c5.2,5.7,12.8,8.9,20.7,8.9c6.8,0,13.3-2.4,18.4-6.8l10.4-8.9c3.8,0.9,7.8,1.1,10.1,1.1h60.2c11.3,0,20.5-9.2,20.5-20.5v-41.3C246,120.3,233.6,107.8,218.3,107.8z M225.5,190.1h-60.2c-3.8,0-7.3-0.5-9.8-1.3c-1.2-0.4-2.5-0.1-3.5,0.7l-11.8,10.2c-3.8,3.2-8.6,5-13.7,5c-4.6,0-9-1.4-12.5-4.1l21.5-18.4l4.3,4.3c0.7,0.7,1.6,1.1,2.6,1.1c0.9,0,1.8-0.4,2.6-1.1c1.4-1.4,1.4-3.7,0-5.1l-6.6-6.7l-7.8-8.1c0,0,0-0.1-0.1-0.1c-14.2-13.8-31.6-24.5-50.4-30.8l-33.7-11.2c-1.9-0.6-3.9,0.4-4.6,2.2c-3,8.4-10.9,14-19.8,14h-3.7c2.3-8.4,8.7-15.1,17.1-17.6c1.6-0.5,2.6-1.9,2.6-3.5c0-1.6-1.2-3-2.7-3.4c-8.5-2.1-15.1-9-17-17.6h3.8c8.9,0,16.9,5.6,19.8,14c0.5,1.4,1.9,2.4,3.4,2.4h173.2c11.3,0,20.5,9.2,20.5,20.5v34h-33.4c-2,0-3.6,1.6-3.6,3.6c0,2,1.6,3.6,3.6,3.6h33.4v0.1C238.8,184.1,232.8,190.1,225.5,190.1z M209.3,152.6c0-2.4,2-4.3,4.3-4.3c2.4,0,4.3,2,4.3,4.3c0,2.4-2,4.3-4.3,4.3C211.2,156.9,209.3,155,209.3,152.6z"/><g></g><g></g><g></g><g></g><g></g><g></g><g></g><g></g><g></g><g></g><g></g><g></g><g></g><g></g><g></g></g></g>
</svg>