<?xml version="1.0" encoding="utf-8"?>
<!-- Svg Vector Icons : http://www.onlinewebfonts.com/icon -->
<!DOCTYPE svg PUBLIC "-//W3C//DTD SVG 1.1//EN" "http://www.w3.org/Graphics/SVG/1.1/DTD/svg11.dtd">
<svg version="1.1" xmlns="http://www.w3.org/2000/svg" xmlns:xlink="http://www.w3.org/1999/xlink" x="0px" y="0px" viewBox="0 0 256 256" enable-background="new 0 0 256 256" xml:space="preserve">
<metadata> Svg Vector Icons : http://www.onlinewebfonts.com/icon </metadata>
<g><g><path fill="#000000" d="M231.5,90.6c0-13.7-16-24.5-36.4-24.5c-8.8,0-17,2-23.6,5.7c-6.4-4.7-13.6-8.5-21.4-10.9c2.9-6.5,4.5-14,4.5-21.1c0-20.6-13.4-29.8-26.7-29.8c-13.3,0-26.7,9.2-26.7,29.8c0,7.1,1.6,14.5,4.5,21.1c-7.8,2.5-15,6.2-21.4,10.9c-6.5-3.7-14.8-5.7-23.6-5.7c-20.4,0-36.4,10.8-36.4,24.5c0,6.3,5.2,10.6,15.3,12.7c5.9,1.2,13,1.6,19.6,1.8c-3,8-4.7,16.7-4.7,25.7c0,11.8,2.8,25.3,7.9,38.3c-3.9,1.2-7.8,2.8-11.4,4.9c-8.1,4.7-14.7,11.2-18.4,18.3c-4,7.7-4.4,15.2-0.9,21.2c1.3,2.4,3.5,4,6.3,4.7c1.2,0.3,2.4,0.5,3.7,0.5c9.5,0,23.2-7.5,38.7-16.5c0.2-0.1,0.3-0.2,0.5-0.3c12.7,16.2,27.7,25.6,42.9,27v13.1c0,2.2,1.8,4.1,4.1,4.1c2.2,0,4.1-1.8,4.1-4.1v-13.1c15.3-1.4,30.2-10.8,42.9-27c0.2,0.1,0.3,0.2,0.5,0.3c15.5,9,29.2,16.5,38.7,16.5c1.3,0,2.6-0.1,3.7-0.5c2.7-0.7,4.9-2.4,6.3-4.7c6.9-11.9-1.6-29.2-19.3-39.4c-3.7-2.1-7.5-3.8-11.4-4.9c5-13,7.9-26.4,7.9-38.3c0-9.1-1.7-17.7-4.7-25.7c6.5-0.2,13.7-0.6,19.6-1.8C226.4,101.2,231.5,97,231.5,90.6z M193.2,130.8c0,1.4,0,2.9-0.1,4.4h-30.4l-14.2-24.5l25.8-25.8C185.9,96.7,193.2,112.9,193.2,130.8z M173.5,190l-24.3-24.3l12.9-22.4h29.9C189.6,158.7,183,175.8,173.5,190z M63.8,143h29.8l13.1,22.7L82.4,190C72.9,175.7,66.2,158.5,63.8,143z M62.8,130.8c0-17.4,6.8-33.2,18-44.9l26.1,26.1l-13.2,22.9H62.9C62.8,133.5,62.8,132.1,62.8,130.8z M128,65.6c15.1,0,29,5.2,40.1,13.8l-27.6,27.6h-26.9L86.8,80.3C98,71.1,112.4,65.6,128,65.6z M114.3,162.6l-13.7-23.7l13.7-23.7h27.3l13.7,23.7l-13.7,23.7H114.3L114.3,162.6z M109.5,39.8c0-13.4,7.1-21.7,18.5-21.7c11.4,0,18.5,8.3,18.5,21.7c0,6.4-1.6,13.3-4.4,19c-4.6-0.9-9.3-1.4-14.1-1.4s-9.5,0.5-14.1,1.4C111.1,53.1,109.5,46.1,109.5,39.8z M41.4,95.3c-5.5-1.1-8.8-2.9-8.8-4.7c0-8.9,13-16.4,28.3-16.4c6.1,0,11.9,1.2,16.8,3.3C71.8,83.1,66.8,89.7,63,97C55.9,96.9,47.7,96.6,41.4,95.3z M42,210.5c-0.7,0-1.3-0.1-1.8-0.2c-0.8-0.2-1.1-0.6-1.3-0.9c-2-3.5-1.6-8.2,1.1-13.3c3-5.7,8.4-11.1,15.3-15c3.4-2,7-3.4,10.5-4.4c2.8,6.2,6.2,12.2,9.9,17.8c0.2,0.3,0.3,0.5,0.5,0.8C66,201.1,49.8,210.5,42,210.5z M128,220.9c-15.4,0-29.5-10-40.7-24.2l26-26h29.5l26,26C157.5,210.9,143.4,220.9,128,220.9z M200.8,181.1c13.3,7.7,20.8,20.6,16.4,28.3c-0.2,0.4-0.5,0.7-1.3,0.9c-6.8,1.8-25-8.7-36-15.1c0.2-0.3,0.4-0.5,0.5-0.8c3.7-5.6,7.1-11.6,9.9-17.8C193.8,177.6,197.4,179.1,200.8,181.1z M193,97c-3.8-7.3-8.8-13.8-14.7-19.5c4.8-2.1,10.7-3.3,16.8-3.3c15.3,0,28.3,7.5,28.3,16.4c0,1.8-3.3,3.6-8.8,4.7C208.3,96.6,200,96.9,193,97z"/><g></g><g></g><g></g><g></g><g></g><g></g><g></g><g></g><g></g><g></g><g></g><g></g><g></g><g></g><g></g></g></g>
</svg>